<svg width="75" height="75" viewBox="0 0 75 75" fill="none" xmlns="http://www.w3.org/2000/svg">
<rect width="75" height="75" rx="13" fill="#F45252" fill-opacity="0.85"/>
<path d="M43.94 38.0011L55.077 26.8641C56.3076 25.6335 56.3076 23.6385 55.077 22.4099L53.5923 20.9252C52.3614 19.6943 50.3664 19.6943 49.1378 20.9252L38.0011 32.0619L26.8641 20.9229C25.6335 19.6924 23.6385 19.6924 22.4099 20.9229L20.9229 22.4076C19.6924 23.6385 19.6924 25.6335 20.9229 26.8621L32.0619 38.0011L20.9252 49.1378C19.6943 50.3687 19.6943 52.3637 20.9252 53.5923L22.4099 55.077C23.6404 56.3076 25.6354 56.3076 26.8641 55.077L38.0011 43.94L49.1378 55.077C50.3687 56.3076 52.3637 56.3076 53.5923 55.077L55.077 53.5923C56.3076 52.3614 56.3076 50.3664 55.077 49.1378L43.94 38.0011Z" fill="white"/>
</svg>
