<svg width="102" height="102" viewBox="0 0 102 102" fill="none" xmlns="http://www.w3.org/2000/svg">
<path d="M74.9062 17.5312C73.015 17.5312 71.1662 18.0921 69.5936 19.1428C68.0211 20.1936 66.7954 21.687 66.0717 23.4343C65.3479 25.1817 65.1585 27.1044 65.5275 28.9593C65.8965 30.8142 66.8072 32.5181 68.1445 33.8555C69.4819 35.1928 71.1858 36.1035 73.0407 36.4725C74.8956 36.8415 76.8183 36.6521 78.5657 35.9283C80.313 35.2046 81.8064 33.9789 82.8572 32.4064C83.9079 30.8338 84.4687 28.985 84.4687 27.0937C84.4659 24.5585 83.4575 22.1279 81.6648 20.3352C79.8721 18.5425 77.4415 17.5341 74.9062 17.5312ZM74.9062 33.4687C73.6454 33.4687 72.4128 33.0949 71.3645 32.3944C70.3161 31.6939 69.499 30.6982 69.0165 29.5334C68.534 28.3685 68.4078 27.0867 68.6537 25.85C68.8997 24.6134 69.5069 23.4775 70.3984 22.5859C71.29 21.6944 72.4259 21.0872 73.6625 20.8412C74.8992 20.5953 76.181 20.7215 77.3459 21.204C78.5107 21.6865 79.5064 22.5036 80.2069 23.552C80.9074 24.6004 81.2812 25.8329 81.2812 27.0937C81.2793 28.7839 80.6071 30.4043 79.4119 31.5994C78.2168 32.7946 76.5964 33.4668 74.9062 33.4687Z" fill="white"/>
<path d="M50.8067 52.4005L52.6739 50.5334L50.4203 48.2793L48.5528 50.1466C46.6478 52.0476 45.0816 54.2601 43.9218 56.6885L46.7984 58.0617C47.8023 55.9601 49.1579 54.0455 50.8067 52.4005Z" fill="white"/>
<path d="M41.853 63.5227L45.0078 63.9772C45.1523 62.9764 45.3699 61.9875 45.6589 61.0185L42.6049 60.1064C42.271 61.2253 42.0197 62.3671 41.853 63.5227Z" fill="white"/>
<path d="M97.2188 3.18761H91.835C87.7728 3.1765 83.7488 3.97122 79.9958 5.52577C76.2428 7.08032 72.8354 9.36382 69.9709 12.2441C66.9027 15.3161 64.1517 18.6893 61.7595 22.3126H56.168C53.814 22.3062 51.4822 22.7667 49.3073 23.6676C47.1325 24.5684 45.158 25.8916 43.498 27.5607C43.1991 27.8596 43.0312 28.2649 43.0312 28.6876C43.0312 29.1103 43.1991 29.5157 43.498 29.8145L49.873 36.1895C50.1719 36.4884 50.5773 36.6564 51 36.6564H54.6407C54.5554 36.9002 54.4708 37.1441 54.3885 37.3889L49.873 41.9044C42.7317 49.0504 36.2425 56.8195 30.4826 65.1193C29.0438 63.9175 27.3575 63.0479 25.544 62.5726C23.7306 62.0974 21.8345 62.0281 19.9912 62.3698C18.1479 62.7115 16.4027 63.4558 14.88 64.5495C13.3574 65.6432 12.0948 67.0594 11.1824 68.6971C9.80551 68.4119 8.37765 68.4959 7.04363 68.9405C5.70962 69.3851 4.51688 70.1745 3.58636 71.2288L5.9762 73.3379C6.4251 72.8293 6.97699 72.4219 7.59529 72.1428C8.21358 71.8637 8.88415 71.7192 9.56253 71.7189C9.69657 71.7189 9.82955 71.7255 9.96169 71.7364C9.69604 72.7721 9.56193 73.8371 9.56253 74.9064H12.75C12.7494 73.0614 13.2826 71.2556 14.2855 69.707C15.2884 68.1583 16.718 66.933 18.4018 66.1789C20.0856 65.4247 21.9517 65.174 23.7749 65.4569C25.5981 65.7398 27.3004 66.5443 28.6765 67.7733C28.165 68.5409 27.6592 69.312 27.1591 70.0867L26.8747 70.5289C25.701 72.3637 24.0834 73.8729 22.1716 74.9166C20.2598 75.9604 18.1157 76.505 15.9375 76.5001V79.6876C18.6496 79.6937 21.3194 79.0157 23.6998 77.7161C26.0802 76.4165 28.0943 74.5375 29.5558 72.2529L29.8402 71.8107C35.9749 62.2739 43.0675 53.3885 51.0076 45.2929L56.7148 51.0001L53.0605 54.6544C49.8029 57.9122 47.9728 62.3306 47.9728 66.9376C47.9728 71.5447 49.8029 75.963 53.0605 79.2208L55.3145 76.9669C53.2014 74.8643 51.8104 72.1451 51.3419 69.2012C52.2218 68.7625 53.1912 68.5333 54.1744 68.5314C55.1576 68.5295 56.1278 68.755 57.0094 69.1904C57.8909 69.6257 58.6598 70.259 59.256 71.0408C59.8522 71.8226 60.2594 72.7317 60.446 73.697C59.7384 73.8634 59.0446 74.0837 58.3707 74.3559L59.5668 77.3105C61.2607 76.6273 63.0963 76.3702 64.9126 76.5616C66.729 76.753 68.4707 77.3872 69.9849 78.4085C71.4992 79.4297 72.7397 80.807 73.5977 82.4193C74.4557 84.0317 74.9051 85.8299 74.9063 87.6564H78.0938C78.0895 83.8535 76.5769 80.2076 73.8878 77.5185C71.1988 74.8295 67.5529 73.3169 63.75 73.3126C63.7049 73.3126 63.6603 73.3154 63.6152 73.3158C63.3859 71.9589 62.8665 70.6674 62.0925 69.5296C61.3185 68.3917 60.3081 67.4343 59.1303 66.7226C57.9525 66.0108 56.635 65.5616 55.2677 65.4056C53.9005 65.2495 52.5156 65.3903 51.2077 65.8183C51.4637 62.4519 52.9213 59.2896 55.3145 56.9083L64.6111 47.6116C64.8559 47.5294 65.0999 47.4447 65.3438 47.3594V51.0001C65.3438 51.4228 65.5116 51.8281 65.8105 52.127L72.1855 58.502C72.4844 58.8009 72.8898 58.9689 73.3125 58.9689C73.7352 58.9689 74.1406 58.8009 74.4395 58.502C76.1086 56.8421 77.4318 54.8676 78.3326 52.6928C79.2334 50.518 79.6939 48.1861 79.6875 45.8322V40.2405C83.3109 37.8483 86.6841 35.0973 89.7562 32.0291C92.6364 29.1645 94.9198 25.7572 96.4743 22.0042C98.0289 18.2513 98.8236 14.2273 98.8125 10.1651V4.78136C98.8125 4.35868 98.6446 3.9533 98.3457 3.65442C98.0468 3.35553 97.6414 3.18762 97.2188 3.18761ZM95.625 6.37511V10.1651C95.6269 12.6292 95.3021 15.0827 94.6591 17.4614C92.2989 17.1971 90.0994 16.1354 88.4243 14.4517L87.5485 13.5759C85.8648 11.9007 84.8031 9.70124 84.5387 7.34094C86.9175 6.69799 89.3709 6.37322 91.835 6.37511H95.625ZM51.6601 33.4689L46.9388 28.7474C49.551 26.6372 52.81 25.4905 56.168 25.5001H59.782C58.2919 28.0636 56.979 30.7261 55.8525 33.4689H51.6601ZM53.254 43.0314L55.7813 40.5041L61.4961 46.2189L58.9688 48.7462L53.254 43.0314ZM76.5 45.8322C76.5096 49.1902 75.3629 52.4492 73.2526 55.0613L68.5313 50.34V46.1476C71.274 45.0211 73.9365 43.7082 76.5 42.2181V45.8322ZM87.5022 29.7753C80.9235 36.3376 72.9507 41.3332 64.1761 44.391L57.6092 37.8241C60.667 29.0495 65.6626 21.0766 72.225 14.4979C74.8602 11.854 78.0031 9.77057 81.4645 8.37294C81.9241 11.1998 83.2644 13.8094 85.2944 15.8297L86.1703 16.7056C88.1906 18.7356 90.8002 20.076 93.6271 20.5356C92.2294 23.997 90.146 27.14 87.5022 29.7753Z" fill="white"/>
<path d="M14.3815 86.6236C12.8921 86.0895 11.2934 85.9335 9.72884 86.1694C8.16428 86.4054 6.68274 87.026 5.41711 87.9756L7.33148 90.5242C8.27873 89.8141 9.40498 89.3818 10.5841 89.2757C11.7631 89.1696 12.9485 89.3938 14.0073 89.9233C15.0662 90.4528 15.9567 91.2667 16.5791 92.2737C17.2015 93.2807 17.5312 94.4412 17.5313 95.625H20.7188C20.7188 94.1992 20.3995 92.7914 19.7842 91.5052C19.1689 90.2189 18.2733 89.0868 17.1632 88.192C18.2612 86.4488 19.9914 85.1984 21.9911 84.7028C23.9907 84.2073 26.1046 84.5051 27.8895 85.5338L29.4856 82.7747C26.9633 81.3198 23.9724 80.908 21.1507 81.627C18.329 82.346 15.8999 84.139 14.3815 86.6236L14.3815 86.6236Z" fill="white"/>
<path d="M44.6249 79.6875C41.8802 79.6856 39.2315 80.6974 37.1871 82.5286L39.3127 84.9037C40.6323 83.7258 42.3061 83.0201 44.0706 82.8979C45.8352 82.7756 47.5903 83.2437 49.0597 84.2284C50.529 85.2131 51.6292 86.6585 52.1869 88.337C52.7447 90.0156 52.7284 91.832 52.1405 93.5003L55.1459 94.5623C55.7393 92.8794 55.9206 91.0787 55.6745 89.3113C55.4285 87.5438 54.7623 85.8612 53.7319 84.4043C52.7014 82.9474 51.3367 81.7588 49.7521 80.9381C48.1676 80.1174 46.4094 79.6886 44.6249 79.6875Z" fill="white"/>
</svg>
